/* XPM */
static char *bitcoin__[] = {
/* columns rows colors chars-per-pixel */
"64 64 98 2 ",
"   c #000000",
".  c #000807",
"X  c #05060A",
"o  c #050A0D",
"O  c #090B11",
"+  c #0D0F18",
"@  c #001313",
"#  c #0D111A",
"$  c #001A1A",
"%  c #10131E",
"&  c #131724",
"*  c #141826",
"=  c #161B2A",
"-  c #181D2F",
";  c #1A1F31",
":  c #002525",
">  c #002B2B",
",  c #1C2236",
"<  c #1E243A",
"1  c #003434",
"2  c #003A3A",
"3  c #20263D",
"4  c #242B45",
"5  c #272E4A",
"6  c #282F4C",
"7  c #29314E",
"8  c #2B3453",
"9  c #2E3759",
"0  c #2F385A",
"q  c #303A5C",
"w  c #333D62",
"e  c #004343",
"r  c #004B4B",
"t  c #005151",
"y  c #005C5C",
"u  c #364067",
"i  c #374269",
"p  c #39446D",
"a  c #374C73",
"s  c #3C4974",
"d  c #355177",
"f  c #34567B",
"g  c #325A7E",
"h  c #006262",
"j  c #016868",
"k  c #1C667A",
"l  c #007474",
"z  c #007878",
"x  c #315F82",
"c  c #137886",
"v  c #2F6587",
"b  c #2D6B8B",
"n  c #316083",
"m  c #2C708F",
"M  c #2B7392",
"N  c #297895",
"B  c #277F9B",
"V  c #287C99",
"C  c #475587",
"Z  c #475588",
"A  c #48568A",
"S  c #4D5D94",
"D  c #53649F",
"F  c #5364A0",
"G  c #5668A6",
"H  c #5F72B5",
"J  c #6176BC",
"K  c #657AC2",
"L  c #687DC8",
"P  c #008D8D",
"I  c #009898",
"U  c #248DA7",
"Y  c #2097AE",
"T  c #00A4A4",
"R  c #1CA4B8",
"E  c #00B4B4",
"W  c #00B8B8",
"Q  c #18B0C1",
"!  c #14BDCB",
"~  c #6C82CF",
"^  c #6D84D1",
"/  c #00C4C4",
"(  c #00CBCB",
")  c #14C1CF",
"_  c #0FCFDA",
"`  c #12C4D1",
"'  c #10C9D5",
"]  c #00D2D2",
"[  c #0DD3DD",
"{  c #00DBDB",
"}  c #0BDCE3",
"|  c #00E6E6",
" . c #08E4EA",
".. c #03EAEC",
"X. c #06ECF1",
"o. c #01F4F5",
"O. c #00FFFF",
"+. c None",
/* pixels */
"+.+.+.+.+.+.+.+.+.+.+.+.+.+.+.+.+.+.+.+.+.+.+.+.+.+.+.~ ~ ^ ~ ~ ~ ~ ~ ^ ~ +.+.+.+.+.+.+.+.+.+.+.+.+.+.+.+.+.+.+.+.+.+.+.+.+.+.+.",
"+.+.+.+.+.+.+.+.+.+.+.+.+.+.+.+.+.+.+.+.+.+.+.~ ~ ~ ~ ~ ~ ^ ~ ~ ~ ~ ~ ~ ~ ~ ~ ~ ~ +.+.+.+.+.+.+.+.+.+.+.+.+.+.+.+.+.+.+.+.+.+.+.",
"+.+.+.+.+.+.+.+.+.+.+.+.+.+.+.+.+.+.+.+.^ ~ ~ ~ ~ ~ ^ ^ ^ ^ ^ ^ ^ ^ ^ ^ ^ ~ ~ ~ ~ ~ ~ ~ +.+.+.+.+.+.+.+.+.+.+.+.+.+.+.+.+.+.+.+.",
"+.+.+.+.+.+.+.+.+.+.+.+.+.+.+.+.+.+.~ ~ ~ ~ ^ ^ ^ L H F C s i w w i s A D J L ^ ^ ~ ~ ~ ~ ~ +.+.+.+.+.+.+.+.+.+.+.+.+.+.+.+.+.+.",
"+.+.+.+.+.+.+.+.+.+.+.+.+.+.+.+.~ ~ ~ ^ ^ ~ J S w , # X                 X # , w S J ~ ^ ~ ~ ~ ~ +.+.+.+.+.+.+.+.+.+.+.+.+.+.+.+.",
"+.+.+.+.+.+.+.+.+.+.+.+.+.+.~ ~ ~ ~ ^ L G w * X                                 X * w G L ^ ~ ~ ~ ^ +.+.+.+.+.+.+.+.+.+.+.+.+.+.",
"+.+.+.+.+.+.+.+.+.+.+.+.+.~ ~ ~ ^ ~ D 7 O                                             O 7 F ~ ~ ~ ~ ~ +.+.+.+.+.+.+.+.+.+.+.+.+.",
"+.+.+.+.+.+.+.+.+.+.+.+.~ ~ ^ ^ H 0 O                                                     O q H ^ ~ ~ ~ +.+.+.+.+.+.+.+.+.+.+.+.",
"+.+.+.+.+.+.+.+.+.+.~ ~ ~ ^ L A &                                                             * C ~ ~ ~ ~ ~ +.+.+.+.+.+.+.+.+.+.",
"+.+.+.+.+.+.+.+.+.~ ~ ^ ^ K w X                                                                 X w K ^ ~ ^ ~ +.+.+.+.+.+.+.+.+.",
"+.+.+.+.+.+.+.+.~ ~ ~ ^ J 5                                                                         4 J ^ ~ ~ ~ +.+.+.+.+.+.+.+.",
"+.+.+.+.+.+.+.+.~ ~ ^ H <                                                                             < H ^ ~ ~ +.+.+.+.+.+.+.+.",
"+.+.+.+.+.+.+.^ ~ ^ J <                                                           .                     < J ~ ~ ~ +.+.+.+.+.+.+.",
"+.+.+.+.+.+.~ ~ ^ K 4                                         X o $ : 2 r h z P T c #                     5 K ~ ^ ~ +.+.+.+.+.+.",
"+.+.+.+.+.~ ~ ~ ~ w                               o e y l P T E ( { | o.O.O.O.O.` f 6 X                     w ~ ~ ~ ~ +.+.+.+.+.",
"+.+.+.+.+.~ ~ ^ Z X                             @ I o.O.O.O.O.O.O.O.O.O.O.O.O.) f p p =                     X A ^ ~ ~ +.+.+.+.+.",
"+.+.+.+.~ ~ ^ H *                             @ T O.O.O.O.O.O.O.O.O.O.O.O.O.` f p p p 9 o                     & H ^ ~ ~ +.+.+.+.",
"+.+.+.+.~ ~ ~ q                             $ T O.O.O.O.O.O.O.O.O.O.O.O.O.' f p p p p p ,                       0 ~ ~ ~ +.+.+.+.",
"+.+.+.~ ~ ^ D O                           $ E O.O.O.O.O.O.O.O.O.O.O.O.O.' g p p p p p p w O                     O F ^ ~ ~ +.+.+.",
"+.+.+.~ ~ ~ 7                           : W O.O.O.O.O.O.O.O.O.O.O.O.O._ g p p p p p p p p 4                       7 ~ ~ ~ +.+.+.",
"+.+.~ ~ ^ G O                         > / O.O.O.O.O.O.O.O.O.O.O.O.O.[ x i p p p p p p p p i #                     O G ^ ~ ~ +.+.",
"+.+.~ ~ ~ w                         > / O.O.O.O.O.O.O.O.O.O.O.O.O.[ x p p p p p p p p p p p 8 X                     w ^ ~ ~ +.+.",
"+.+.^ ~ J &                       1 ( O.O.O.O.O.O.O.O.O.O.O.O.O.} n p p p p p p p p p p p p p =                     * J ~ ~ +.+.",
"+.~ ^ ^ S X                     2 ] O.O.O.O.O.O.O.O.O.O.O.O.O.} n p i p p p p p p p p p p p p 0 o                   X S ^ ^ ~ +.",
"+.~ ^ ^ w                     e { O.O.O.O.O.O.O.O.O.O.O.O.O.} b p p p p p p p p p p p p p p p p ,                     w ^ ~ ~ +.",
"+.~ ~ L ,                   r { O.O.O.O.O.O.O.O.O.O.O.O.O.} b p p p p p p p p p p p p p p p p p w +                   , L ~ ~ +.",
"+.~ ^ H #                 t | O.O.O.O.O.O.O.O.O.O.O.O.O. .m p p p p p p p p p p p p p p p p p p p 4                   # H ^ ^ +.",
"~ ~ ^ D X               y | O.O.O.O.O.O.O.O.O.O.O.O.O. .m p p p p p p p p p p p p p p p p p p p p u %                 X F ^ ~ ~ ",
"~ ~ ^ A             X h ..O.O.O.O.O.O.O.O.O.O.O.O.O. .N p p p p p p p p p p p p p p p p p p p p p p 8 X                 Z ^ ^ ~ ",
"~ ~ ^ s             j ..O.O.O.O.O.O.O.O.O.O.O.O.O. .M p p p p p p p p p p p p p p p p p p p p p p p i =                 s ^ ^ ~ ",
"^ ~ ^ i           o k U Y R Q ! ' [ }  .X.o.o.o.X.V p p p p p p p p p p p p p p p p p p p p p p p p p 0 o               i ^ ~ ~ ",
"~ ~ ^ w             # w i i p p p a d g n b M U b p p p p p p p p p p p p p p p p p p p p p p p p p p p ,               w ^ ~ ~ ",
"^ ^ ^ w               ; p p p p p p i p p p p p p p p p p p p p p p p p p p p p p p p p p p p p p p p p w +             w ^ ^ ~ ",
"~ ^ ^ i                 4 p p p p p p p p p p p p p p p p p p p p p p p p p p p p p p p p p p p p p p p p 3             i ^ ~ ~ ",
"~ ~ ^ s                 o 8 p p p p p p p p p p p p p p p p p p p p p p p p p p p p p p p p p p p p p a w &             s ^ ~ ~ ",
"~ ~ ^ Z                   % w p p p p p p p p p p p p p p p p p p p p p p p p p p p p p p p p p p p p i =               A ^ ~ ~ ",
"~ ~ ^ D X                   = i p p p p p p p p p p p p p p p p p p p p p p p p p p p p p p p p p p p <               X F ^ ~ ~ ",
"+.~ ^ H #                     4 p p p p p p p p p p p p p p p p p p p p p p p p p p p p p p p p p p 5 X               # J ~ ~ +.",
"+.~ ^ L ,                     X 8 p p p p p p p p p p p p p p p p p p p p p p p p p p p p p p p p 0 O                 , L ~ ~ +.",
"+.~ ~ ^ w                       + w p p p p p p p p p p p p p p p p p p p p p p p p p p p p p p w #                   w ^ ~ ~ +.",
"+.~ ~ ^ S X                       = i p p p p p p p p p p p p p p p p p p p p p p p p p p p p i =                   X S ^ ~ ~ +.",
"+.+.~ ^ J =                         < p p p p p p p p p p p p p p p p p p p p p p p p p p p p <                     * J ~ ~ +.+.",
"+.+.~ ~ ^ w                         X 7 p p p p p p p p p p p p p p p p p p p p p p p p p p 4 X                     w ^ ~ ~ +.+.",
"+.+.~ ~ ^ G O                         + w p p p p p p p p p p p p p p p p p p p p p p p p 8 o                     O G ^ ~ ~ +.+.",
"+.+.+.~ ~ ~ 6                           * i p p p p p p p p p p p p p p p p p p p p p p w #                       7 ~ ~ ^ +.+.+.",
"+.+.+.~ ~ ^ D O                           < p p p p p p p p p p p p p p p p p p p p p i &                       O D ^ ~ ~ +.+.+.",
"+.+.+.+.~ ~ ~ 0                           X 7 p p p p p p p p p p p p p p p p p p p i ,                         q ~ ~ ~ +.+.+.+.",
"+.+.+.+.~ ~ ^ H &                           + 0 p p p p p p p p p p p p p p p p p a 4                         & H ^ ~ ~ +.+.+.+.",
"+.+.+.+.+.~ ^ ^ A X                           O = 4 9 w p p p p p p p p p p p p p 8 X                       X A ^ ^ ~ +.+.+.+.+.",
"+.+.+.+.+.~ ~ ~ ~ w                                 X # - 5 q i s p p p p p p p q +                         w ~ ~ ~ ~ +.+.+.+.+.",
"+.+.+.+.+.+.~ ~ ~ K 4                                       X # ; 6 q i p p p i &                         4 K ~ ~ ~ +.+.+.+.+.+.",
"+.+.+.+.+.+.+.~ ~ ^ J <                                             X & < 8 q ,                         < J ^ ~ ~ +.+.+.+.+.+.+.",
"+.+.+.+.+.+.+.+.~ ^ ^ H <                                                   O                         < H ^ ~ ^ +.+.+.+.+.+.+.+.",
"+.+.+.+.+.+.+.+.~ ~ ~ ^ J 4                                                                         4 J ^ ~ ~ ~ +.+.+.+.+.+.+.+.",
"+.+.+.+.+.+.+.+.+.~ ~ ~ ^ K w X                                                                 X w K ^ ~ ~ ~ +.+.+.+.+.+.+.+.+.",
"+.+.+.+.+.+.+.+.+.+.~ ~ ~ ~ ~ A &                                                             & A ~ ~ ~ ~ ~ +.+.+.+.+.+.+.+.+.+.",
"+.+.+.+.+.+.+.+.+.+.+.+.~ ~ ~ ^ H q O                                                     O 0 H ^ ~ ~ ~ +.+.+.+.+.+.+.+.+.+.+.+.",
"+.+.+.+.+.+.+.+.+.+.+.+.+.~ ~ ^ ^ ~ D 5 O                                             O 6 D ~ ^ ^ ~ ~ +.+.+.+.+.+.+.+.+.+.+.+.+.",
"+.+.+.+.+.+.+.+.+.+.+.+.+.+.~ ~ ~ ~ ^ ~ G w * X                                 X * w G ~ ^ ~ ~ ~ ~ +.+.+.+.+.+.+.+.+.+.+.+.+.+.",
"+.+.+.+.+.+.+.+.+.+.+.+.+.+.+.+.~ ~ ~ ~ ^ ~ J S w , % X                 X # , w S J ^ ^ ~ ~ ~ ~ +.+.+.+.+.+.+.+.+.+.+.+.+.+.+.+.",
"+.+.+.+.+.+.+.+.+.+.+.+.+.+.+.+.+.+.~ ~ ~ ~ ^ ^ ^ L J D A s i w w i s A D J K ^ ^ ^ ~ ~ ~ ~ +.+.+.+.+.+.+.+.+.+.+.+.+.+.+.+.+.+.",
"+.+.+.+.+.+.+.+.+.+.+.+.+.+.+.+.+.+.+.+.~ ~ ~ ~ ~ ~ ~ ~ ^ ^ ^ ^ ^ ^ ^ ^ ^ ^ ~ ~ ~ ~ ~ ~ +.+.+.+.+.+.+.+.+.+.+.+.+.+.+.+.+.+.+.+.",
"+.+.+.+.+.+.+.+.+.+.+.+.+.+.+.+.+.+.+.+.+.+.+.~ ~ ~ ~ ~ ~ ~ ~ ~ ^ ~ ~ ~ ~ ~ ~ ~ ~ +.+.+.+.+.+.+.+.+.+.+.+.+.+.+.+.+.+.+.+.+.+.+.",
"+.+.+.+.+.+.+.+.+.+.+.+.+.+.+.+.+.+.+.+.+.+.+.+.+.+.+.~ ~ ~ ~ ~ ~ ~ ~ ~ ~ +.+.+.+.+.+.+.+.+.+.+.+.+.+.+.+.+.+.+.+.+.+.+.+.+.+.+."
};
