/* XPM */
static char *bitcoin__[] = {
/* columns rows colors chars-per-pixel */
"16 16 85 1 ",
"  c black",
". c #020001",
"X c #010102",
"o c #000303",
"O c #020204",
"+ c #020305",
"@ c #000404",
"# c #000605",
"$ c #030406",
"% c #040509",
"& c #05060A",
"* c #06070B",
"= c #07080D",
"- c #07090E",
"; c #08080E",
": c #08090F",
"> c #080A10",
", c #090B11",
"< c #0B0D16",
"1 c #0E101A",
"2 c #0F121D",
"3 c #10141F",
"4 c #111420",
"5 c #111421",
"6 c #141826",
"7 c #151929",
"8 c #1A1F32",
"9 c #082F35",
"0 c #1D2338",
"q c #003D3D",
"w c #20263E",
"e c #133845",
"r c #272F4B",
"t c #272F4C",
"y c #27304C",
"u c #28304C",
"i c #28304D",
"p c #2A3250",
"a c #2D3657",
"s c #2E3758",
"d c #2F3859",
"f c #313B5E",
"g c #354066",
"h c #364168",
"j c #374169",
"k c #354369",
"l c #38436B",
"z c #39436D",
"x c #39446D",
"c c #39456D",
"v c #39446E",
"b c #39456E",
"n c #3A446E",
"m c #3A456E",
"M c #3A456F",
"N c #38466E",
"B c #374A72",
"V c #394870",
"C c #006161",
"Z c #006A6A",
"A c #007675",
"S c #4D5C93",
"D c #5465A2",
"F c #5466A2",
"G c #5D70B2",
"H c #657AC2",
"J c #697FCA",
"K c #6A7FCB",
"L c #008181",
"P c #058B8E",
"I c #2290A8",
"U c #2391AA",
"Y c #2193AB",
"T c #2194AB",
"R c #15AEBD",
"E c #0FCFDA",
"W c #12C6D3",
"Q c #00EBEB",
"! c #00EFEF",
"~ c #00F4F3",
"^ c #03F5F7",
"/ c #03F6F8",
"( c #04F5F8",
") c cyan",
"_ c None",
/* pixels */
"_____KGFFGK_____",
"___KSy4,>4tSK___",
"__Hg=      ;gH__",
"_KgO  qZLPe OgK_",
"_S=  CQ)^Yj2 ;S_",
"Ku #Z~)^IMMu# uK",
"G4#A~)(YMlMj7 4G",
"F=9RWEYNMlMMs*>F",
"F>*pVBMMlMlMg3;F",
"G4 <fMljMlMMw 4G",
"Ky  6gMMlMMu% uK",
"_S=  0jMMMs; ;S_",
"_KgO O18ra2 #gK_",
"__Hg;    # ;gH__",
"___KSu5>>4rSK___",
"_____KGFFGK_____"
};
