/* XPM */
static char *bitcoin__[] = {
/* columns rows colors chars-per-pixel */
"32 32 161 2 ",
"   c black",
".  c #000001",
"X  c #000101",
"o  c #010101",
"O  c #010102",
"+  c #000303",
"@  c #020203",
"#  c #020204",
"$  c #020304",
"%  c #030305",
"&  c #000404",
"*  c #010506",
"=  c #030406",
"-  c #030407",
";  c #000606",
":  c #040407",
">  c #040508",
",  c #040509",
"<  c #050609",
"1  c #05090D",
"2  c #07080D",
"3  c #000E0E",
"4  c #08090E",
"5  c #08090F",
"6  c #080A10",
"7  c #090A11",
"8  c #090B11",
"9  c #0B0A12",
"0  c #0A0C12",
"q  c #0A0C13",
"w  c #0B0D15",
"e  c #0C0E17",
"r  c #0F121C",
"t  c #001919",
"y  c #111420",
"u  c #111521",
"i  c #121623",
"p  c #131624",
"a  c #161A2A",
"s  c #181C2D",
"d  c #181C2E",
"f  c #191E30",
"g  c #191E31",
"h  c #002727",
"j  c #1B2033",
"k  c #1C2236",
"l  c #1D2338",
"z  c #1E2339",
"x  c #1E243A",
"c  c #1F263C",
"v  c #003838",
"b  c #003939",
"n  c #20263D",
"m  c #232A44",
"M  c #242B45",
"N  c #252C46",
"B  c #252D47",
"V  c #262D49",
"C  c #272E4A",
"Z  c #282F4C",
"A  c #2A324F",
"S  c #2A3250",
"D  c #2B3352",
"F  c #2C3454",
"G  c #2C3554",
"H  c #2E3759",
"J  c #2F385A",
"K  c #31375A",
"L  c #30395B",
"P  c #333D61",
"I  c #333D62",
"U  c #343D63",
"Y  c #343E63",
"T  c #353F65",
"R  c #004242",
"E  c #06474B",
"W  c #004949",
"Q  c #004D4D",
"!  c #005151",
"~  c #005959",
"^  c #1C5266",
"/  c #364067",
"(  c #374168",
")  c #374169",
"_  c #37426A",
"`  c #3A416A",
"'  c #3A416B",
"]  c #38436B",
"[  c #3A426B",
"{  c #39426C",
"}  c #38436C",
"|  c #39436C",
" . c #39436D",
".. c #3A426C",
"X. c #3B426C",
"o. c #3A436C",
"O. c #39446C",
"+. c #39446D",
"@. c #39456D",
"#. c #39446E",
"$. c #39456E",
"%. c #3A456E",
"&. c #3A456F",
"*. c #3A466F",
"=. c #006161",
"-. c #006A6A",
";. c #036A6C",
":. c #2B7392",
">. c #2A7795",
",. c #297A97",
"<. c #2A7A98",
"1. c #287D9A",
"2. c #4D5C93",
"3. c #4D5D93",
"4. c #52639E",
"5. c #53639E",
"6. c #5364A0",
"7. c #5465A1",
"8. c #5C6FB1",
"9. c #657AC2",
"0. c #677CC5",
"q. c #687DC7",
"w. c #697FCA",
"e. c #009C9C",
"r. c #27819C",
"t. c #26839E",
"y. c #25849F",
"u. c #1E9CB2",
"i. c #2488A2",
"p. c #238BA5",
"a. c #228FA8",
"s. c #1AA9BC",
"d. c #00B6B6",
"f. c #16B6C6",
"g. c #6C82CF",
"h. c #6C83D0",
"j. c #6D83D0",
"k. c #6D83D1",
"l. c #6D84D2",
"z. c #6E84D2",
"x. c #6E84D3",
"c. c #6E85D3",
"v. c #00C9C9",
"b. c #00D9D9",
"n. c #00DEDE",
"m. c #00E3E3",
"M. c #00E7E7",
"N. c #08E1E7",
"B. c #07E8ED",
"V. c #06EAEF",
"C. c #00ECEC",
"Z. c #00EFEF",
"A. c #02EFF0",
"S. c #06ECF0",
"D. c #05EEF2",
"F. c #05EFF3",
"G. c #04F1F4",
"H. c #04F3F5",
"J. c #00F4F4",
"K. c cyan",
"L. c None",
/* pixels */
"L.L.L.L.L.L.L.L.L.L.L.L.j.l.x.x.x.x.l.j.L.L.L.L.L.L.L.L.L.L.L.L.",
"L.L.L.L.L.L.L.L.L.j.l.j.0.8.4.3.3.4.8.0.j.l.j.L.L.L.L.L.L.L.L.L.",
"L.L.L.L.L.L.L.L.j.w.4.P f w , o o , w f P 4.w.l.L.L.L.L.L.L.L.L.",
"L.L.L.L.L.L.j.g.7.B 2 o o o o o o o o o o 2 B 7.j.j.L.L.L.L.L.L.",
"L.L.L.L.L.j.w.$.8 o o o o o o o o o o o o o o 8 $.q.j.L.L.L.L.L.",
"L.L.L.L.j.9.F # o o o o o o o o o o o o o o o o # G 9.j.L.L.L.L.",
"L.L.L.j.w.G o o o o o o o o % 3 t h v Q E 2 o o o o G w.j.L.L.L.",
"L.L.L.g.$.o o o o o o o v e.d.v.b.M.J.N.:.l o o o o # $.g.L.L.L.",
"L.L.l.7.8 o o o o o o R b.K.K.K.K.K.B.>.o.U e o o o o 8 7.l.L.L.",
"L.j.w.B o o o o o o W n.K.K.K.K.K.S.,.o.o.$.B o o o o o B w.j.L.",
"L.j.6.2 o o o o o ! m.K.K.K.K.K.S.<.o.o.$.o./ u o o o o 2 6.l.L.",
"L.j.P o o o o o ~ M.K.K.K.K.K.F.t.o.o.$.o.$.$.D % o o o o P j.L.",
"j.0.f o o o o =.C.K.K.K.K.K.F.y.o.#.#.#.$.$.] ] s o o o o f 0.j.",
"x.8.w o o o -.Z.K.K.K.K.K.G.i.o.} o.#.#.] #.$.$.J 2 o o o w 8.j.",
"x.4.< o o ;.J.K.K.K.K.K.G.p.$.] $.o.] $.#.#.$.o.$.l o o o < 4.x.",
"x.3.% o % ^ <.t.a.u.s.f.i.$.O.$.o.$.] $.#.#.o.$.o.T w o o # 3.x.",
"x.3.o o o 8 K o.T ] ] o.o.] ] #.#.$.$.] #.#.] ] $.$.m o o o 3.x.",
"x.4.< o o o u / &.$.o.o.$.$.$.#.#.] o.$.#.#.$.$.$.) s o o < 4.x.",
"l.8.w o o o o k o.o.] $.o.#.$.o.$.$.$.o.$.o.$.o.o.c o o o w 8.l.",
"l.0.f o o o o # Z *.$.$.] #.o.$.] ] #.#.o.$.o.$.Z , o o o f 0.l.",
"L.j.U o o o o o 8 H $.o.#.#.] ] $.o.#.#.] $.$.H 8 o o o o P j.L.",
"L.l.4.2 o o o o o y T *.o.$.$.$.o.$.o.$.$.$.P r o o o o 2 4.l.L.",
"L.j.w.B o o o o o o g o.$.o.#.o.#.$.$.o.] ) a o o o o o V w.j.L.",
"L.L.l.7.8 o o o o o # N ] $.$.$.#.] ] $.$.l o o o o o w 6.l.L.L.",
"L.L.L.g.$.o o o o o o % u l D P ] $.$.$.V # o o o o # $.g.L.L.L.",
"L.L.L.j.w.F o o o o o o o o # 2 p c F D 8 o o o o o F w.j.L.L.L.",
"L.L.L.L.j.9.D # o o o o o o o o o o # < o o o o o D 9.j.L.L.L.L.",
"L.L.L.L.L.j.w.*.8 o o o o o o o o o o o o o o q *.w.j.L.L.L.L.L.",
"L.L.L.L.L.L.j.g.7.B 2 o o o o o o o o o o 2 N 7.g.j.L.L.L.L.L.L.",
"L.L.L.L.L.L.L.L.l.w.6.P d w , # o < w d P 6.w.j.L.L.L.L.L.L.L.L.",
"L.L.L.L.L.L.L.L.L.j.l.j.0.8.4.3.3.4.8.0.j.l.j.L.L.L.L.L.L.L.L.L.",
"L.L.L.L.L.L.L.L.L.L.L.L.j.l.x.x.x.l.l.j.L.L.L.L.L.L.L.L.L.L.L.L."
};
